<svg width="280" height="78" viewBox="0 0 280 78" fill="none" xmlns="http://www.w3.org/2000/svg">
<g clip-path="url(#clip0_2_31323)">
<path d="M56.1512 24.1726L58.6737 21.6748C59.1901 22.24 59.7347 22.8238 60.2667 23.4171C63.9639 27.5284 67.0643 32.1371 69.4774 37.1082C71.7214 41.7386 73.2706 46.5843 73.8089 51.7142C74.2345 55.7732 74.0217 59.7634 72.6822 63.6351C70.144 70.9818 64.9675 75.4373 57.4437 77.2201C53.5598 78.138 49.6195 78.0756 45.7105 77.4355C38.7345 76.299 32.4156 73.5202 26.5443 69.6735C20.0466 65.4143 14.3829 60.0074 9.83179 53.7187C6.35954 49.0358 3.67267 43.8214 1.87612 38.2791C0.567914 34.1296 -0.158174 29.8864 0.0264774 25.5183C0.207999 21.2315 1.23141 17.1912 3.59432 13.5569C6.41104 9.22633 10.3857 6.4756 15.3275 5.07058C18.983 4.03398 22.7073 3.88099 26.4692 4.29938C32.2685 4.94569 37.6641 6.85028 42.7937 9.55416C47.6285 12.1292 52.094 15.3417 56.0698 19.1052C56.1668 19.1957 56.2795 19.2738 56.3828 19.3581L53.8289 21.8559C53.3376 21.4219 52.8181 20.9505 52.286 20.4946C47.7417 16.6261 42.7029 13.6256 36.9505 11.9115C33.8336 10.9383 30.5647 10.5415 27.3048 10.7406C22.8795 11.0529 18.9705 12.564 15.9253 15.908C13.65 18.4058 12.4294 21.3938 11.9694 24.7066C11.3998 28.7655 11.9694 32.7246 13.2212 36.5993C14.7786 41.3071 17.177 45.6948 20.3006 49.5505C23.919 54.1602 28.3593 58.0639 33.3983 61.0654C37.3793 63.4259 41.6138 65.1244 46.2082 65.8519C49.9356 66.4326 53.6318 66.339 57.2028 64.9745C62.1477 63.1012 65.2648 59.5261 66.6763 54.4649C67.5432 51.3583 67.5495 48.2017 67.0394 45.0388C66.1005 39.2095 63.6687 34.0047 60.2511 29.2432C59.0461 27.5634 57.6534 26.0179 56.3452 24.4131L56.1512 24.1726Z" fill="white"/>
<path d="M52.965 27.3104C53.4063 27.7912 53.8507 28.2471 54.2607 28.7248C55.3509 30.0748 56.3088 31.526 57.1212 33.0585C58.5521 35.544 59.5023 38.2754 59.9223 41.1108C60.2853 43.7585 60.1508 46.3656 58.9834 48.826C57.3998 52.2012 54.6519 54.0527 51.0121 54.6397C47.294 55.2298 43.7543 54.4554 40.3993 52.9005C33.2354 49.5847 28.0276 44.2987 24.8354 37.0862C23.606 34.4081 23.031 31.4772 23.1578 28.5343C23.3081 25.4995 24.2845 22.8018 26.6005 20.7286C28.6786 18.8553 31.1949 18.0716 33.9521 17.9748C36.9848 17.8686 39.8485 18.5993 42.6089 19.7764C45.4748 21.0297 48.1214 22.732 50.4487 24.8188C50.5301 24.8875 50.6209 24.95 50.6866 24.9999L47.2971 28.3033C46.6243 27.8662 45.8982 27.3416 45.1251 26.9014C43.3725 25.9023 41.5041 25.2747 39.4604 25.3746C37.2696 25.4807 35.5358 26.3987 34.5906 28.4688C33.9965 29.8485 33.8787 31.3861 34.2557 32.8399C35.0413 36.3931 37.1069 39.1095 39.9486 41.2857C41.5971 42.5848 43.5497 43.4444 45.6228 43.7835C47.1532 44.0239 48.6398 43.9084 50.0043 43.131C51.7256 42.1568 52.5081 40.5863 52.6333 38.6755C52.7433 36.6028 52.1862 34.5494 51.0434 32.815C50.5802 32.0812 50.1045 31.3662 49.6475 30.6918L52.965 27.3104Z" fill="white"/>
<path d="M67.234 19.1332L64.8868 18.7741C63.372 18.5368 61.8604 18.2933 60.3456 18.0653C60.296 18.0653 60.2469 18.0555 60.2012 18.0365C60.1554 18.0175 60.1138 17.9896 60.0789 17.9545C60.044 17.9194 60.0164 17.8777 59.9977 17.8319C59.979 17.7861 59.9696 17.737 59.97 17.6875C59.6352 15.4801 59.2784 13.2758 58.9372 11.0714C58.882 10.7492 58.9086 10.4184 59.0147 10.1091C59.1208 9.79981 59.3029 9.52201 59.5444 9.30111C62.5426 6.3183 65.5409 3.33237 68.5391 0.343312C68.6025 0.27324 68.6716 0.208495 68.7457 0.149731C69.0806 -0.115662 69.3372 -0.0251163 69.4123 0.396391C69.5375 1.11451 69.6408 1.83888 69.7534 2.56013C69.9631 3.88397 70.1666 5.20781 70.3794 6.53166C70.4007 6.83291 70.5307 7.11626 70.7453 7.32924C70.96 7.54221 71.2447 7.67038 71.5468 7.69002C73.5435 8.00225 75.5402 8.31448 77.537 8.6267C77.7185 8.65792 78.0283 8.78282 78.0283 8.87024C78.0245 9.0891 77.9385 9.29856 77.7874 9.45723C75.1396 12.1174 72.4825 14.7713 69.816 17.419L68.633 18.6086C68.2545 18.961 67.7515 19.1496 67.234 19.1332Z" fill="white"/>
<path opacity="0.25" d="M43.9932 36.1652L63.5318 27.3854C63.5318 27.3854 62.4928 25.9804 61.5914 24.9531L49.6516 30.7168L43.9932 36.1652Z" fill="black"/>
</g>
<path d="M118.552 39.9765V51.1765C117.099 52.2165 115.552 52.9965 113.912 53.5165C112.272 54.0232 110.486 54.2765 108.552 54.2765C106.232 54.2765 104.132 53.9165 102.252 53.1965C100.386 52.4765 98.7923 51.4699 97.4723 50.1765C96.1523 48.8832 95.1323 47.3365 94.4123 45.5365C93.7056 43.7365 93.3523 41.7565 93.3523 39.5965C93.3523 37.4232 93.6923 35.4365 94.3723 33.6365C95.0656 31.8232 96.0523 30.2765 97.3323 28.9965C98.6123 27.7032 100.159 26.7032 101.972 25.9965C103.799 25.2765 105.846 24.9165 108.112 24.9165C109.259 24.9165 110.319 25.0032 111.292 25.1765C112.279 25.3499 113.192 25.5965 114.032 25.9165C114.872 26.2365 115.646 26.6232 116.352 27.0765C117.072 27.5165 117.739 28.0165 118.352 28.5765L117.132 30.4965C116.946 30.8032 116.699 30.9965 116.392 31.0765C116.086 31.1565 115.752 31.0832 115.392 30.8565C115.046 30.6565 114.659 30.4232 114.232 30.1565C113.819 29.8899 113.319 29.6432 112.732 29.4165C112.159 29.1899 111.486 28.9965 110.712 28.8365C109.939 28.6765 109.026 28.5965 107.972 28.5965C106.399 28.5965 104.979 28.8565 103.712 29.3765C102.446 29.8832 101.366 30.6165 100.472 31.5765C99.5789 32.5365 98.8923 33.6965 98.4123 35.0565C97.9323 36.4032 97.6923 37.9165 97.6923 39.5965C97.6923 41.3565 97.9456 42.9365 98.4523 44.3365C98.9589 45.7232 99.6723 46.9032 100.592 47.8765C101.526 48.8365 102.652 49.5699 103.972 50.0765C105.306 50.5832 106.792 50.8365 108.432 50.8365C109.072 50.8365 109.666 50.8032 110.212 50.7365C110.772 50.6565 111.306 50.5499 111.812 50.4165C112.319 50.2832 112.806 50.1165 113.272 49.9165C113.752 49.7165 114.226 49.4965 114.692 49.2565V43.2365H110.452C110.186 43.2365 109.966 43.1565 109.792 42.9965C109.632 42.8365 109.552 42.6365 109.552 42.3965V39.9765H118.552ZM126.859 37.5365C127.513 36.2032 128.299 35.1565 129.219 34.3965C130.139 33.6365 131.246 33.2565 132.539 33.2565C132.979 33.2565 133.393 33.3099 133.779 33.4165C134.179 33.5099 134.526 33.6565 134.819 33.8565L134.559 36.7965C134.466 37.1565 134.246 37.3365 133.899 37.3365C133.713 37.3365 133.433 37.3032 133.059 37.2365C132.686 37.1565 132.286 37.1165 131.859 37.1165C131.233 37.1165 130.679 37.2099 130.199 37.3965C129.719 37.5699 129.286 37.8365 128.899 38.1965C128.526 38.5432 128.193 38.9765 127.899 39.4965C127.606 40.0032 127.333 40.5832 127.079 41.2365V53.9565H123.179V33.6365H125.419C125.846 33.6365 126.133 33.7165 126.279 33.8765C126.439 34.0232 126.553 34.2899 126.619 34.6765L126.859 37.5365ZM145.746 33.3165C147.239 33.3165 148.586 33.5632 149.786 34.0565C150.999 34.5365 152.026 35.2365 152.866 36.1565C153.719 37.0632 154.372 38.1632 154.826 39.4565C155.279 40.7365 155.506 42.1765 155.506 43.7765C155.506 45.3765 155.279 46.8232 154.826 48.1165C154.372 49.4099 153.719 50.5099 152.866 51.4165C152.026 52.3232 150.999 53.0232 149.786 53.5165C148.586 53.9965 147.239 54.2365 145.746 54.2365C144.239 54.2365 142.879 53.9965 141.666 53.5165C140.466 53.0232 139.439 52.3232 138.586 51.4165C137.732 50.5099 137.072 49.4099 136.606 48.1165C136.152 46.8232 135.926 45.3765 135.926 43.7765C135.926 42.1765 136.152 40.7365 136.606 39.4565C137.072 38.1632 137.732 37.0632 138.586 36.1565C139.439 35.2365 140.466 34.5365 141.666 34.0565C142.879 33.5632 144.239 33.3165 145.746 33.3165ZM145.746 51.1965C147.666 51.1965 149.099 50.5499 150.046 49.2565C150.992 47.9632 151.466 46.1432 151.466 43.7965C151.466 41.4499 150.992 39.6299 150.046 38.3365C149.099 37.0299 147.666 36.3765 145.746 36.3765C143.799 36.3765 142.346 37.0299 141.386 38.3365C140.439 39.6299 139.966 41.4499 139.966 43.7965C139.966 46.1432 140.439 47.9632 141.386 49.2565C142.346 50.5499 143.799 51.1965 145.746 51.1965ZM187.807 33.6365L181.267 53.9565H178.147C177.773 53.9565 177.52 53.7099 177.387 53.2165L173.107 39.9765C173 39.6432 172.907 39.3165 172.827 38.9965C172.747 38.6632 172.673 38.3299 172.607 37.9965C172.487 38.6899 172.32 39.3632 172.107 40.0165L167.767 53.2165C167.633 53.7099 167.347 53.9565 166.907 53.9565H163.947L157.387 33.6365H160.467C160.773 33.6365 161.027 33.7099 161.227 33.8565C161.44 34.0032 161.58 34.1899 161.647 34.4165L165.307 46.8965C165.427 47.4032 165.533 47.8965 165.627 48.3765C165.72 48.8565 165.807 49.3365 165.887 49.8165C166.007 49.3365 166.133 48.8565 166.267 48.3765C166.413 47.8965 166.56 47.4032 166.707 46.8965L170.767 34.3365C170.833 34.1099 170.96 33.9299 171.147 33.7965C171.333 33.6499 171.56 33.5765 171.827 33.5765H173.527C173.82 33.5765 174.06 33.6499 174.247 33.7965C174.447 33.9299 174.58 34.1099 174.647 34.3365L178.607 46.8965C178.753 47.4032 178.893 47.9032 179.027 48.3965C179.16 48.8765 179.28 49.3632 179.387 49.8565C179.467 49.3765 179.56 48.8965 179.667 48.4165C179.773 47.9232 179.893 47.4165 180.027 46.8965L183.747 34.4165C183.813 34.1899 183.947 34.0032 184.147 33.8565C184.36 33.7099 184.6 33.6365 184.867 33.6365H187.807ZM205.037 37.4365C204.917 37.5832 204.797 37.7032 204.677 37.7965C204.57 37.8765 204.41 37.9165 204.197 37.9165C203.983 37.9165 203.757 37.8365 203.517 37.6765C203.29 37.5032 202.997 37.3232 202.637 37.1365C202.29 36.9365 201.863 36.7565 201.357 36.5965C200.863 36.4232 200.25 36.3365 199.517 36.3365C198.557 36.3365 197.71 36.5099 196.977 36.8565C196.243 37.2032 195.63 37.6965 195.137 38.3365C194.657 38.9765 194.29 39.7565 194.037 40.6765C193.783 41.5965 193.657 42.6299 193.657 43.7765C193.657 44.9632 193.79 46.0232 194.057 46.9565C194.323 47.8765 194.703 48.6565 195.197 49.2965C195.69 49.9232 196.29 50.4032 196.997 50.7365C197.703 51.0565 198.49 51.2165 199.357 51.2165C200.197 51.2165 200.89 51.1165 201.437 50.9165C201.983 50.7032 202.437 50.4765 202.797 50.2365C203.157 49.9965 203.457 49.7765 203.697 49.5765C203.937 49.3632 204.183 49.2565 204.437 49.2565C204.757 49.2565 205.003 49.3765 205.177 49.6165L206.297 51.0565C205.83 51.6299 205.303 52.1165 204.717 52.5165C204.143 52.9165 203.53 53.2432 202.877 53.4965C202.223 53.7499 201.537 53.9365 200.817 54.0565C200.11 54.1765 199.39 54.2365 198.657 54.2365C197.39 54.2365 196.203 54.0032 195.097 53.5365C194.003 53.0699 193.05 52.3899 192.237 51.4965C191.437 50.6032 190.803 49.5099 190.337 48.2165C189.87 46.9099 189.637 45.4299 189.637 43.7765C189.637 42.2699 189.843 40.8765 190.257 39.5965C190.683 38.3165 191.303 37.2165 192.117 36.2965C192.943 35.3632 193.957 34.6365 195.157 34.1165C196.357 33.5832 197.73 33.3165 199.277 33.3165C200.73 33.3165 202.01 33.5499 203.117 34.0165C204.223 34.4832 205.21 35.1432 206.077 35.9965L205.037 37.4365ZM218.246 33.3165C219.739 33.3165 221.086 33.5632 222.286 34.0565C223.499 34.5365 224.526 35.2365 225.366 36.1565C226.219 37.0632 226.872 38.1632 227.326 39.4565C227.779 40.7365 228.006 42.1765 228.006 43.7765C228.006 45.3765 227.779 46.8232 227.326 48.1165C226.872 49.4099 226.219 50.5099 225.366 51.4165C224.526 52.3232 223.499 53.0232 222.286 53.5165C221.086 53.9965 219.739 54.2365 218.246 54.2365C216.739 54.2365 215.379 53.9965 214.166 53.5165C212.966 53.0232 211.939 52.3232 211.086 51.4165C210.232 50.5099 209.572 49.4099 209.106 48.1165C208.652 46.8232 208.426 45.3765 208.426 43.7765C208.426 42.1765 208.652 40.7365 209.106 39.4565C209.572 38.1632 210.232 37.0632 211.086 36.1565C211.939 35.2365 212.966 34.5365 214.166 34.0565C215.379 33.5632 216.739 33.3165 218.246 33.3165ZM218.246 51.1965C220.166 51.1965 221.599 50.5499 222.546 49.2565C223.492 47.9632 223.966 46.1432 223.966 43.7965C223.966 41.4499 223.492 39.6299 222.546 38.3365C221.599 37.0299 220.166 36.3765 218.246 36.3765C216.299 36.3765 214.846 37.0299 213.886 38.3365C212.939 39.6299 212.466 41.4499 212.466 43.7965C212.466 46.1432 212.939 47.9632 213.886 49.2565C214.846 50.5499 216.299 51.1965 218.246 51.1965ZM236.439 33.6365V53.9565H232.539V33.6365H236.439ZM237.179 27.3565C237.179 27.7165 237.106 28.0632 236.959 28.3965C236.812 28.7165 236.612 29.0032 236.359 29.2565C236.119 29.4965 235.832 29.6899 235.499 29.8365C235.166 29.9699 234.819 30.0365 234.459 30.0365C234.099 30.0365 233.759 29.9699 233.439 29.8365C233.119 29.6899 232.832 29.4965 232.579 29.2565C232.339 29.0032 232.146 28.7165 231.999 28.3965C231.866 28.0632 231.799 27.7165 231.799 27.3565C231.799 26.9832 231.866 26.6365 231.999 26.3165C232.146 25.9832 232.339 25.6965 232.579 25.4565C232.832 25.2032 233.119 25.0099 233.439 24.8765C233.759 24.7299 234.099 24.6565 234.459 24.6565C234.819 24.6565 235.166 24.7299 235.499 24.8765C235.832 25.0099 236.119 25.2032 236.359 25.4565C236.612 25.6965 236.812 25.9832 236.959 26.3165C237.106 26.6365 237.179 26.9832 237.179 27.3565ZM245.746 36.4565C246.186 35.9899 246.646 35.5632 247.126 35.1765C247.606 34.7899 248.112 34.4632 248.646 34.1965C249.192 33.9165 249.772 33.7032 250.386 33.5565C251.012 33.3965 251.679 33.3165 252.386 33.3165C253.506 33.3165 254.486 33.5032 255.326 33.8765C256.179 34.2499 256.892 34.7765 257.466 35.4565C258.039 36.1232 258.472 36.9299 258.766 37.8765C259.059 38.8232 259.206 39.8699 259.206 41.0165V53.9565H255.286V41.0165C255.286 39.5632 254.952 38.4365 254.286 37.6365C253.619 36.8232 252.599 36.4165 251.226 36.4165C250.226 36.4165 249.286 36.6565 248.406 37.1365C247.539 37.6032 246.732 38.2432 245.986 39.0565V53.9565H242.086V33.6365H244.426C244.972 33.6365 245.312 33.8965 245.446 34.4165L245.746 36.4565ZM276.449 37.1365C276.342 37.3099 276.229 37.4365 276.109 37.5165C275.989 37.5832 275.835 37.6165 275.649 37.6165C275.435 37.6165 275.195 37.5432 274.929 37.3965C274.675 37.2499 274.362 37.0899 273.989 36.9165C273.629 36.7432 273.202 36.5832 272.709 36.4365C272.215 36.2899 271.629 36.2165 270.949 36.2165C270.389 36.2165 269.875 36.2899 269.409 36.4365C268.955 36.5699 268.569 36.7632 268.249 37.0165C267.929 37.2565 267.682 37.5499 267.509 37.8965C267.335 38.2299 267.249 38.5899 267.249 38.9765C267.249 39.4832 267.395 39.9032 267.689 40.2365C267.995 40.5699 268.389 40.8565 268.869 41.0965C269.362 41.3365 269.915 41.5565 270.529 41.7565C271.155 41.9432 271.789 42.1432 272.429 42.3565C273.082 42.5699 273.715 42.8165 274.329 43.0965C274.955 43.3632 275.509 43.7032 275.989 44.1165C276.482 44.5165 276.875 45.0032 277.169 45.5765C277.475 46.1499 277.629 46.8499 277.629 47.6765C277.629 48.6232 277.455 49.5032 277.109 50.3165C276.775 51.1165 276.275 51.8099 275.609 52.3965C274.955 52.9832 274.142 53.4432 273.169 53.7765C272.195 54.1099 271.082 54.2765 269.829 54.2765C268.429 54.2765 267.135 54.0432 265.949 53.5765C264.762 53.1099 263.769 52.5165 262.969 51.7965L263.889 50.2965C263.995 50.1099 264.129 49.9699 264.289 49.8765C264.449 49.7699 264.662 49.7165 264.929 49.7165C265.182 49.7165 265.442 49.8099 265.709 49.9965C265.975 50.1832 266.295 50.3899 266.669 50.6165C267.042 50.8299 267.495 51.0299 268.029 51.2165C268.562 51.3899 269.229 51.4765 270.029 51.4765C270.695 51.4765 271.275 51.3965 271.769 51.2365C272.262 51.0632 272.669 50.8365 272.989 50.5565C273.322 50.2632 273.569 49.9299 273.729 49.5565C273.889 49.1832 273.969 48.7899 273.969 48.3765C273.969 47.8432 273.815 47.4032 273.509 47.0565C273.215 46.6965 272.822 46.3899 272.329 46.1365C271.849 45.8832 271.295 45.6632 270.669 45.4765C270.042 45.2899 269.402 45.0899 268.749 44.8765C268.095 44.6632 267.455 44.4165 266.829 44.1365C266.202 43.8565 265.642 43.5032 265.149 43.0765C264.669 42.6499 264.275 42.1299 263.969 41.5165C263.675 40.9032 263.529 40.1565 263.529 39.2765C263.529 38.4899 263.689 37.7365 264.009 37.0165C264.342 36.2965 264.815 35.6632 265.429 35.1165C266.055 34.5699 266.822 34.1365 267.729 33.8165C268.649 33.4832 269.695 33.3165 270.869 33.3165C272.215 33.3165 273.429 33.5299 274.509 33.9565C275.602 34.3832 276.535 34.9699 277.309 35.7165L276.449 37.1365Z" fill="white"/>
<defs>
<clipPath id="clip0_2_31323">
<rect width="78.0294" height="77.9132" fill="white"/>
</clipPath>
</defs>
</svg>
